<svg height="512pt" viewBox="0 0 512 512" width="512pt" xmlns="http://www.w3.org/2000/svg"><path d="m178.175781 411.605469c-2.460937 0-4.957031-.609375-7.261719-1.886719-55.871093-30.988281-90.578124-89.890625-90.578124-153.71875 0-96.863281 78.800781-175.667969 175.664062-175.667969s175.664062 78.804688 175.664062 175.667969c.003907 63.832031-34.703124 122.730469-90.582031 153.71875-7.242187 4.015625-16.375 1.402344-20.390625-5.84375-4.019531-7.242188-1.402344-16.371094 5.84375-20.390625 46.34375-25.703125 75.132813-74.550781 75.128906-127.484375 0-80.320312-65.34375-145.667969-145.664062-145.667969s-145.664062 65.347657-145.664062 145.667969c0 52.933594 28.785156 101.78125 75.128906 127.484375 7.246094 4.019531 9.859375 13.148437 5.84375 20.394531-2.742188 4.9375-7.859375 7.726563-13.132813 7.726563zm0 0" fill="#a8ebfa"/><path d="m401.664062 256c.003907 52.933594-28.785156 101.78125-75.128906 127.484375-7.246094 4.019531-9.863281 13.148437-5.84375 20.390625 4.015625 7.246094 13.144532 9.859375 20.390625 5.84375 55.878907-30.984375 90.585938-89.886719 90.582031-153.71875 0-96.863281-78.800781-175.667969-175.664062-175.667969v30c80.320312 0 145.664062 65.347657 145.664062 145.667969zm0 0" fill="#76e2f8"/><path d="m336.335938 498.289062c-6.179688 0-11.964844-3.847656-14.144532-10.003906-2.757812-7.8125 1.335938-16.382812 9.144532-19.140625 90.117187-31.855469 150.664062-117.507812 150.664062-213.144531 0-124.617188-101.382812-226-226-226s-226 101.382812-226 226c0 95.636719 60.546875 181.289062 150.664062 213.144531 7.808594 2.761719 11.902344 11.332031 9.140626 19.140625-2.757813 7.8125-11.332032 11.902344-19.140626 9.144532-102.078124-36.082032-170.664062-133.105469-170.664062-241.429688 0-68.378906 26.628906-132.667969 74.980469-181.019531 48.351562-48.351563 112.640625-74.980469 181.019531-74.980469s132.667969 26.628906 181.019531 74.980469c48.351563 48.351562 74.980469 112.640625 74.980469 181.019531 0 108.324219-68.585938 205.347656-170.664062 241.429688-1.652344.582031-3.339844.859374-5 .859374zm0 0" fill="#00d8e0"/><path d="m437.019531 74.980469c-48.351562-48.351563-112.640625-74.980469-181.019531-74.980469v30c124.617188 0 226 101.382812 226 226 0 95.636719-60.546875 181.289062-150.664062 213.144531-7.808594 2.761719-11.902344 11.332031-9.144532 19.140625 2.179688 6.15625 7.964844 10.003906 14.144532 10.003906 1.660156 0 3.347656-.273437 5-.859374 102.078124-36.082032 170.664062-133.105469 170.664062-241.429688 0-68.378906-26.628906-132.667969-74.980469-181.019531zm0 0" fill="#00acb3"/><path d="m256 321.332031c-52.566406 0-95.335938 42.769531-95.335938 95.332031v80.335938c0 8.285156 6.71875 15 15 15h160.671876c8.28125 0 15-6.714844 15-15v-80.335938c0-52.5625-42.769532-95.332031-95.335938-95.332031zm0 0" fill="#54e360"/><path d="m256 160.664062c-52.566406 0-95.335938 42.769532-95.335938 95.335938s42.769532 95.332031 95.335938 95.332031 95.335938-42.765625 95.335938-95.332031-42.769532-95.335938-95.335938-95.335938zm0 0" fill="#fdd1a3"/><path d="m256 321.332031v190.667969h80.335938c8.28125 0 15-6.714844 15-15v-80.335938c0-52.5625-42.769532-95.332031-95.335938-95.332031zm0 0" fill="#00ab5e"/><path d="m256 160.664062v190.667969c52.566406 0 95.335938-42.765625 95.335938-95.332031s-42.769532-95.335938-95.335938-95.335938zm0 0" fill="#f5a86c"/></svg>